<svg id="svg" xmlns="http://www.w3.org/2000/svg" viewBox="0, 0, 400,400"><g id="svgg"><path id="path0" d="M119.531 0.892 C 119.531 1.422,87.615 87.656,87.338 87.873 C 87.212 87.972,67.694 95.215,43.965 103.968 C 20.235 112.721,1.075 120.117,1.387 120.404 C 1.698 120.690,21.087 127.986,44.473 136.615 C 67.860 145.245,87.225 152.578,87.509 152.911 C 87.792 153.244,95.171 172.940,103.907 196.681 C 112.642 220.421,119.868 239.757,119.963 239.649 C 120.059 239.541,127.259 220.117,135.964 196.484 C 144.669 172.852,152.026 153.248,152.311 152.920 C 152.597 152.593,171.969 145.267,195.361 136.640 C 218.752 128.012,238.150 120.708,238.468 120.407 C 238.785 120.107,219.625 112.700,195.890 103.949 C 172.154 95.197,152.606 87.934,152.450 87.809 C 152.294 87.684,144.978 68.149,136.194 44.397 C 121.883 5.701,119.531 -0.438,119.531 0.892 M129.573 75.667 C 134.705 89.536,139.028 100.981,139.179 101.101 C 139.330 101.220,150.787 105.490,164.640 110.589 C 178.493 115.688,189.567 120.101,189.250 120.396 C 188.932 120.690,177.613 125.013,164.096 130.003 C 150.579 134.992,139.294 139.335,139.018 139.654 C 138.743 139.973,134.387 151.484,129.338 165.234 C 124.290 178.984,120.076 190.323,119.973 190.432 C 119.871 190.541,115.626 179.291,110.541 165.432 C 105.456 151.573,101.069 139.965,100.792 139.636 C 100.515 139.308,89.237 134.960,75.730 129.976 C 62.223 124.992,50.915 120.680,50.600 120.393 C 50.286 120.107,61.444 115.665,75.396 110.522 L 100.762 101.172 106.700 85.156 C 109.965 76.348,114.230 64.817,116.176 59.533 C 118.123 54.248,119.834 50.043,119.979 50.187 C 120.124 50.332,124.441 61.798,129.573 75.667 M308.474 193.970 L 297.808 222.986 269.265 233.563 C 253.566 239.381,240.528 244.341,240.292 244.587 C 240.056 244.832,252.603 249.714,268.174 255.435 C 283.745 261.156,296.889 266.229,297.384 266.708 C 297.878 267.186,302.966 280.322,308.690 295.898 C 314.414 311.475,319.283 324.217,319.510 324.214 C 319.736 324.211,324.653 311.362,330.435 295.660 C 336.217 279.958,341.315 266.834,341.763 266.497 C 342.495 265.946,371.903 254.954,391.648 247.850 C 395.863 246.334,399.028 244.828,398.680 244.503 C 398.332 244.179,385.252 239.188,369.614 233.413 L 341.182 222.913 330.693 194.464 C 324.925 178.817,319.965 165.777,319.673 165.485 C 319.380 165.193,314.341 178.012,308.474 193.970 M324.043 225.688 L 327.860 236.142 338.486 240.141 C 344.330 242.341,349.319 244.353,349.573 244.614 C 349.827 244.874,345.368 246.771,339.666 248.831 C 326.769 253.487,328.267 252.017,323.758 264.449 C 321.653 270.252,319.740 275.000,319.507 275.000 C 319.275 275.000,317.388 270.342,315.315 264.648 C 310.750 252.112,311.995 253.353,299.395 248.792 C 293.691 246.727,289.297 244.788,289.629 244.482 C 289.962 244.176,294.805 242.251,300.391 240.205 C 305.977 238.159,310.798 236.098,311.106 235.625 C 311.413 235.152,313.347 230.129,315.403 224.462 C 317.459 218.795,319.385 214.401,319.683 214.696 C 319.982 214.992,321.944 219.939,324.043 225.688 M169.286 299.742 C 166.452 307.403,163.043 316.673,161.710 320.341 L 159.288 327.011 139.520 334.289 C 128.648 338.292,119.349 341.817,118.855 342.123 C 118.361 342.428,126.942 345.985,137.923 350.027 C 148.904 354.069,158.219 357.581,158.623 357.831 C 159.028 358.081,162.763 367.519,166.923 378.805 C 171.345 390.802,174.719 398.898,175.044 398.296 C 175.350 397.729,178.858 388.420,182.841 377.608 L 190.082 357.951 210.692 350.330 C 222.028 346.138,231.027 342.468,230.690 342.174 C 230.354 341.880,221.078 338.340,210.078 334.309 L 190.078 326.979 182.883 307.405 C 178.925 296.640,175.407 287.377,175.063 286.821 C 174.668 286.182,172.547 290.926,169.286 299.742 M175.928 337.584 C 176.503 339.234,177.679 340.401,179.598 341.228 L 182.422 342.443 179.630 343.541 C 177.565 344.353,176.561 345.387,175.777 347.515 L 174.716 350.391 173.609 347.538 C 172.794 345.436,171.752 344.393,169.650 343.578 L 166.797 342.471 169.717 341.395 C 171.903 340.589,172.850 339.670,173.488 337.737 C 174.542 334.543,174.861 334.523,175.928 337.584 " stroke="none" fill="#000000" fill-rule="evenodd"></path></g></svg>