<svg id="svg" version="1.1" xmlns="http://www.w3.org/2000/svg" xmlns:xlink="http://www.w3.org/1999/xlink" width="400" height="400" viewBox="0, 0, 400,400"><g id="svgg"><path id="path0" d="M318.261 31.896 C 305.206 67.104,308.473 63.368,283.111 72.092 C 258.812 80.450,258.811 79.395,283.121 87.805 C 308.427 96.560,305.189 92.848,318.242 128.054 C 324.420 144.716,330.019 157.720,330.685 156.952 C 331.351 156.184,336.531 142.756,342.195 127.111 C 354.477 93.188,351.759 96.295,376.444 87.971 C 387.444 84.261,396.444 80.617,396.444 79.871 C 396.444 79.126,387.444 75.554,376.444 71.935 C 351.909 63.860,354.566 66.831,342.362 33.838 C 336.768 18.715,331.588 5.265,330.851 3.948 C 330.017 2.457,325.265 13.006,318.261 31.896 M111.239 92.021 C 101.531 119.143,92.548 143.461,91.276 146.062 C 89.227 150.252,83.951 152.461,44.926 165.469 L 0.889 180.148 45.502 195.019 L 90.114 209.890 109.238 262.723 C 119.757 291.781,128.888 316.123,129.530 316.816 C 130.173 317.509,139.491 293.716,150.238 263.942 L 169.778 209.808 213.687 195.183 C 237.836 187.139,257.181 180.133,256.674 179.613 C 256.167 179.092,236.442 172.211,212.840 164.321 L 169.927 149.975 150.381 96.321 C 139.630 66.811,130.396 42.676,129.861 42.687 C 129.327 42.699,120.946 64.899,111.239 92.021 M288.010 246.222 C 286.932 249.156,281.488 263.507,275.914 278.115 L 265.778 304.675 244.000 311.840 C 232.022 315.780,222.222 319.452,222.222 320.000 C 222.222 320.548,232.022 324.221,244.000 328.162 L 265.778 335.329 277.333 365.749 C 283.689 382.480,289.289 396.565,289.778 397.048 C 290.268 397.532,295.838 384.016,302.157 367.014 L 313.645 336.102 333.827 328.940 C 344.926 325.001,354.756 321.778,355.671 321.778 C 356.585 321.778,357.333 320.978,357.333 320.000 C 357.333 319.022,356.585 318.222,355.671 318.222 C 354.756 318.222,344.913 314.995,333.796 311.050 L 313.585 303.877 306.631 284.827 C 302.806 274.350,297.493 260.178,294.824 253.333 L 289.971 240.889 288.010 246.222 " stroke="none" fill="#000000" fill-rule="evenodd"></path></g></svg>